<svg
    id="logo"
    version="1.1"
    width="1024"
    height="1024"
    style="position: relative; width: 1024px; height: 1024px; margin:auto; user-select: none; cursor: default;"
    xmlns="http://www.w3.org/2000/svg"
    xmlns:xlink="http://www.w3.org/1999/xlink"
    viewBox="0 0 1024 1024"
>
<g id="svgPath">

<path d="M 239.161 52.032 C 210.738 59.478, 192.490 88.158, 185.417 136.500 C 183.321 150.827, 182.936 192.603, 184.857 197.323 C 187.106 202.848, 188.962 200.321, 196.480 181.500 C 210.651 146.023, 224.939 127.505, 254.500 106.309 C 275.439 91.294, 281 84.357, 281 73.252 C 281 62.043, 274.709 54.638, 262.540 51.525 C 254.745 49.531, 248.167 49.673, 239.161 52.032 M 243.500 62.402 C 235.783 64.849, 230.437 68.332, 223.305 75.558 C 217.433 81.508, 215.202 84.748, 211.177 93.175 C 205.955 104.106, 201.404 118.226, 202.519 120.032 C 203.857 122.196, 205.916 120.319, 211.875 111.500 C 224.252 93.182, 234.410 83.547, 249 76.288 C 260.038 70.797, 262 69.370, 262 66.830 C 262 62.114, 251.976 59.714, 243.500 62.402 M 309.500 138.479 C 280.017 144.966, 252.961 166.701, 229.724 202.565 C 200.147 248.214, 188.567 301.514, 195.085 362 C 197.600 385.339, 205.454 413.638, 215.878 436.925 C 221.510 449.504, 233.753 471.431, 240.458 480.945 C 242.956 484.490, 245 488.270, 245 489.344 C 245 490.418, 242.974 493.759, 240.498 496.766 C 221.998 519.237, 215.517 544.686, 222.045 569.216 C 225.449 582.008, 245.501 624.441, 258.329 646 C 273.208 671.005, 287.030 688.882, 308.340 710.680 C 320.483 723.102, 323.060 726.236, 322.522 727.930 C 322.161 729.069, 321.482 730, 321.014 730 C 320.545 730, 314.388 734.347, 307.331 739.659 C 270.437 767.432, 246.862 793.208, 233.396 820.499 C 226.244 834.994, 223.827 844.433, 223.667 858.500 C 223.479 874.914, 227.657 887.118, 237.695 899.476 C 251.680 916.694, 274.845 928.414, 311 936.564 C 346.184 944.495, 391.371 945.528, 436.552 939.434 C 485.963 932.770, 532.110 921.045, 586 901.462 C 693.727 862.317, 790.007 804.775, 849.695 743.863 C 870.175 722.963, 890.120 695.352, 898.455 676.362 C 918.813 629.981, 909.185 594.124, 871.500 575.977 C 859.111 570.011, 846.196 566.834, 824.820 564.495 C 814.975 563.418, 815.185 562.663, 829.451 547.855 C 849.137 527.421, 866.127 503.725, 877.744 480.500 C 900.816 434.373, 903.941 393.645, 887.029 359.498 C 876.648 338.538, 860.240 324.752, 838.151 318.430 C 829.427 315.933, 827.853 315.789, 814.651 316.274 C 796.108 316.956, 784.763 320.246, 769.356 329.411 C 750.744 340.482, 734.082 358.812, 722.767 380.665 C 717.540 390.759, 715.757 390.240, 711.712 377.445 C 703.414 351.198, 683.791 336.708, 646.500 329.291 C 639.290 327.858, 632.626 327.508, 613 327.535 C 587.728 327.570, 580.268 328.232, 555.500 332.633 C 483.457 345.435, 394.070 382.201, 336.250 422.815 C 331.163 426.388, 327 429.828, 327 430.458 C 327 432.244, 336.666 435.316, 340.384 434.712 C 342.182 434.421, 348.382 431.259, 354.162 427.686 C 411.247 392.400, 481.217 363.219, 540.540 349.955 C 584.128 340.209, 627.609 338.737, 654.895 346.083 C 678.126 352.337, 692.548 365.809, 694.549 383.124 C 696.852 403.050, 675.005 440.639, 649.184 461.180 C 642.195 466.741, 639 468.236, 639 465.947 C 639 465.367, 642.942 460.755, 647.761 455.697 C 656.639 446.376, 666.506 432.815, 667.611 428.414 C 668.562 424.623, 667.456 423.176, 661.637 420.603 C 647.738 414.456, 632.277 412.014, 607.211 412.006 C 587.198 411.999, 576.839 412.903, 555.291 416.532 C 526.968 421.303, 491.942 431.164, 456 444.484 C 412.199 460.717, 409.435 461.381, 385.500 461.414 C 372.728 461.431, 366.399 460.983, 360.053 459.612 C 333.854 453.954, 316.445 444.405, 296.952 425 C 280.775 408.896, 270.455 393.875, 262.943 375.500 C 254.155 354.002, 251.007 338.174, 251.010 315.500 C 251.013 290.844, 254.971 271.747, 263.652 254.500 C 269.555 242.773, 275.309 234.811, 283.249 227.384 C 296.772 214.734, 309.178 208.334, 335.299 200.533 C 354.236 194.877, 364.746 188.287, 369.068 179.359 C 370.884 175.609, 371.174 173.633, 370.785 167.673 C 369.808 152.715, 360.852 143.694, 342.259 138.938 C 333.369 136.665, 318.682 136.459, 309.500 138.479 M 310.500 153.476 C 287.982 158.419, 263.644 176.726, 247.144 201.132 C 241.172 209.967, 232.711 227.265, 233.179 229.682 C 233.887 233.330, 236.044 231.640, 242.612 222.289 C 264.374 191.308, 294.896 172.664, 327.623 170.364 C 334.915 169.851, 337.905 169.193, 340.329 167.565 C 344.778 164.577, 345.056 160.789, 341.099 157.092 C 335.760 152.105, 323.399 150.645, 310.500 153.476 M 132 198.334 C 120.902 203.953, 116.012 221.166, 120.973 237.145 C 123.536 245.396, 130.084 256.773, 138.264 267.182 C 145.297 276.133, 152.641 283.692, 153.484 282.849 C 153.771 282.563, 153.083 279.667, 151.955 276.414 C 149.427 269.123, 147.007 253.695, 147.027 245 C 147.035 241.425, 147.931 232.425, 149.018 225 C 151.403 208.716, 151.457 205.765, 149.452 201.540 C 146.662 195.661, 139.779 194.396, 132 198.334 M 209.970 310.579 C 208.281 315.020, 207.645 340.414, 208.882 354 C 211.207 379.530, 217.652 404.212, 227.946 427 C 255.497 487.993, 298.570 525.304, 358.922 540.457 C 374.208 544.295, 384.217 545.391, 404.500 545.447 L 423.500 545.500 423.500 543.001 C 423.500 540.666, 423.074 540.455, 417 539.783 C 389.057 536.689, 365.594 529.864, 340.500 517.530 C 288.495 491.968, 252.181 451.267, 230.284 394 C 221.704 371.559, 216.874 348.440, 214.214 317.081 C 213.458 308.171, 211.832 305.681, 209.970 310.579 M 802.500 332.655 C 780.575 337.329, 757.290 354.264, 743.214 375.773 C 736.776 385.611, 728 402.503, 728 405.056 C 728 407.494, 733.868 436.977, 734.584 438.135 C 734.915 438.672, 735.863 438.973, 736.690 438.805 C 737.705 438.599, 739.135 434.762, 741.089 427 C 747.966 399.686, 765.497 375.316, 785.985 364.590 C 796.451 359.111, 802.652 357.733, 814.944 358.153 C 824.921 358.495, 826.153 358.772, 833.197 362.253 C 842.144 366.675, 847.853 372.071, 852.403 380.406 C 858.022 390.699, 859.472 397.585, 859.373 413.500 C 859.274 429.356, 857.459 438.698, 851.449 454.286 C 838.077 488.965, 812.381 522.355, 765.636 565.794 C 754.564 576.082, 743.894 586.075, 741.923 588 C 738.777 591.074, 738.010 592.871, 735.624 602.771 C 731.567 619.604, 732.515 619.828, 748.732 605.873 C 774.929 583.330, 812.329 547.067, 828.532 528.500 C 873.897 476.518, 892.612 420.705, 878.654 379.032 C 874.289 366.002, 870.145 359.245, 860.500 349.432 C 854.417 343.243, 850.703 340.416, 845 337.633 C 832.196 331.385, 816.875 329.591, 802.500 332.655 M 798.698 374.433 C 785.843 379.719, 775.384 388.314, 767.028 400.459 C 758.911 412.257, 751.859 430.732, 747.964 450.402 C 747.022 455.160, 745.944 457.215, 742.407 460.996 L 738.019 465.687 740.097 480.094 C 741.762 491.628, 742.208 500.083, 742.338 522.500 C 742.427 537.900, 742.275 554.089, 742 558.475 C 741.578 565.208, 741.746 566.499, 743.082 566.766 C 745.145 567.178, 758.952 555.054, 776.267 537.625 C 816.852 496.776, 838.606 463.376, 844.972 432.137 C 849.408 410.367, 846.385 393.907, 835.840 382.424 C 826.527 372.283, 811.690 369.091, 798.698 374.433 M 704.402 412.750 C 690.512 438.129, 684.142 446.839, 666.500 464.573 C 647.672 483.499, 630.032 497.478, 604.500 513.706 C 549.361 548.751, 490.857 574.734, 427.374 592.372 C 360.566 610.935, 299.154 613.916, 263.242 600.339 C 255.046 597.240, 253.067 597.027, 251.733 599.097 C 250.934 600.335, 252.602 604.377, 259.162 617.103 C 304.105 704.292, 378.321 761.941, 462 774.663 C 478.415 777.158, 513.182 777.146, 529.500 774.639 C 627.019 759.656, 700.715 690.502, 721.473 594.500 C 726.394 571.739, 727.480 559.625, 727.436 528 C 727.382 490.044, 725.652 476.782, 715.304 435 C 708.761 408.581, 707.780 406.578, 704.402 412.750 M 703.800 500.500 C 704.296 526.175, 703.211 546.900, 700.395 565.500 C 696.256 592.849, 687.686 626.316, 679.664 646.464 C 677.701 651.394, 676.224 655.558, 676.383 655.716 C 676.541 655.874, 678.956 651.615, 681.749 646.252 C 706.096 599.497, 714.641 540.941, 705.133 486 L 703.316 475.500 703.800 500.500 M 547 485.577 C 526.795 495.799, 501.495 504.993, 480 509.925 C 459.309 514.672, 424.462 516.530, 406.727 513.830 C 400.740 512.919, 398.681 512.919, 397.769 513.831 C 395.879 515.721, 398.543 517.422, 408 520.365 C 444.775 531.806, 486.650 527.806, 523.300 509.349 C 540.097 500.890, 560.986 485.013, 559.706 481.677 C 559.352 480.755, 558.711 480.060, 558.281 480.133 C 557.852 480.205, 552.775 482.656, 547 485.577 M 252.318 506.250 C 247.424 511.423, 241.037 521.466, 237.668 529.285 C 234.857 535.811, 234.557 537.503, 234.530 547 C 234.503 556.450, 234.781 558.100, 237.307 563.500 C 239.015 567.151, 242.123 571.387, 245.244 574.318 C 254.353 582.875, 275.249 591.398, 293.264 593.904 C 313.455 596.712, 335.514 596.429, 336.697 593.346 C 337.010 592.532, 336.868 591.494, 336.383 591.039 C 335.897 590.585, 328.750 589.729, 320.500 589.138 C 300.183 587.682, 284.986 584.467, 285.009 581.629 C 285.015 581.008, 286.414 578.067, 288.119 575.094 C 291.966 568.385, 302.633 557.749, 310.800 552.478 C 319.546 546.834, 319.966 544.413, 312.686 541.613 C 307.584 539.650, 289.389 528.883, 280.791 522.738 C 277.331 520.266, 270.581 514.813, 265.792 510.621 C 261.002 506.429, 256.703 503, 256.238 503 C 255.773 503, 254.009 504.462, 252.318 506.250 M 781.459 594.134 C 744.578 626.065, 735.283 633.844, 729.878 637.301 C 722.917 641.754, 723.030 641.605, 716.466 654.979 C 713.423 661.179, 708.924 669.359, 706.467 673.157 C 704.010 676.955, 702 680.443, 702 680.909 C 702 682.691, 705.238 684.294, 711.483 685.603 C 734.884 690.508, 747.029 700.946, 746.988 716.116 C 746.946 731.600, 735.223 750.889, 714.935 768.855 C 698.193 783.679, 668.034 802.248, 644.107 812.464 C 639.490 814.434, 635.539 815.872, 635.326 815.659 C 635.112 815.446, 640.689 811.538, 647.719 806.976 C 688.704 780.376, 712.948 759.761, 725.163 741.123 C 729.860 733.957, 734 723.294, 734 718.363 C 734 710.549, 725.896 702.446, 714.787 699.154 C 703.061 695.678, 701.938 696.221, 702.732 704.978 C 704.116 720.249, 695.249 737.750, 677.354 755.067 C 661.980 769.943, 646.681 780.463, 623 792.446 C 580.750 813.823, 534.766 825.915, 495.500 825.973 C 462.809 826.022, 439.034 815.731, 428.797 797.100 C 427.860 795.395, 426.401 794, 425.556 794 C 423.435 794, 417.449 802.398, 415.014 808.788 C 409.892 822.234, 414.340 834.088, 427.586 842.288 C 431.131 844.483, 442.375 848.858, 448.500 850.424 C 449.600 850.706, 447.144 850.714, 443.043 850.442 C 424.278 849.198, 410.357 842.509, 404.500 831.923 C 401.796 827.035, 401.509 825.662, 401.589 818 C 401.664 810.779, 402.131 808.513, 404.691 802.938 C 406.348 799.328, 410.314 793.299, 413.504 789.539 C 420.307 781.519, 420.182 780.777, 411.472 777.534 C 390.581 769.755, 364.180 755.617, 344.746 741.801 C 341.032 739.161, 337.063 737, 335.926 737 C 333.490 737, 325.054 742.867, 308.500 756.073 C 285.123 774.723, 268.075 792.561, 255.148 811.901 C 241.027 833.026, 235.640 851.895, 239.109 868.073 C 242.822 885.385, 254.840 899.294, 274.498 909.028 C 287.025 915.231, 295.931 918.256, 312.743 922.017 C 333.985 926.769, 349.405 928.271, 377.500 928.324 C 401.707 928.370, 413.393 927.591, 436.500 924.391 C 501.017 915.454, 574.368 893.382, 642.490 862.407 C 725.170 824.811, 788.172 783.899, 834.022 738.028 C 870.190 701.844, 890.042 670.063, 894.128 641.805 C 899.465 604.887, 868.834 580.621, 813.959 578.294 L 800.417 577.720 781.459 594.134 M 673.500 715.683 C 659.025 730.985, 647.449 740.791, 631.640 751.144 C 600.281 771.681, 566.945 784.046, 526.500 790.143 C 520.815 791, 509.581 791.459, 496 791.390 C 477.483 791.295, 472.498 790.917, 460.070 788.667 C 445.052 785.947, 443 786.113, 443 790.042 C 443 792.745, 452.164 802.228, 457.661 805.212 C 460.322 806.658, 466.325 808.865, 471 810.117 C 478.472 812.118, 481.799 812.388, 498.500 812.349 C 522.641 812.294, 539.342 809.861, 564 802.810 C 597.797 793.145, 634.444 774.860, 657.224 756.295 C 667.421 747.985, 680.123 734.132, 683.662 727.460 C 688.684 717.993, 690.630 703.886, 687 703.257 C 686.171 703.114, 680.134 708.671, 673.500 715.683" stroke="none" fill="#fbfbfb" fill-rule="evenodd"></path>
<path d="M 238.259 50.944 C 234.277 52.022, 228.911 54.140, 226.335 55.650 C 219.842 59.455, 209.688 69.177, 204.255 76.792 C 195.218 89.456, 187.832 111.332, 184.603 135 C 181.184 160.065, 181.603 197.032, 185.350 200.778 C 186.894 202.323, 187.150 202.294, 189.081 200.364 C 190.221 199.224, 194.180 190.688, 197.878 181.395 C 211.620 146.870, 225.724 128.126, 252 109.463 C 266.322 99.291, 275.055 91.439, 279.149 85.054 C 281.572 81.276, 282 79.582, 282 73.772 C 282 70.012, 281.387 65.468, 280.637 63.673 C 278.871 59.447, 271.209 52.729, 266.326 51.126 C 259.383 48.847, 246.312 48.762, 238.259 50.944 M 239.161 52.032 C 210.738 59.478, 192.490 88.158, 185.417 136.500 C 183.321 150.827, 182.936 192.603, 184.857 197.323 C 187.106 202.848, 188.962 200.321, 196.480 181.500 C 210.651 146.023, 224.939 127.505, 254.500 106.309 C 275.439 91.294, 281 84.357, 281 73.252 C 281 62.043, 274.709 54.638, 262.540 51.525 C 254.745 49.531, 248.167 49.673, 239.161 52.032 M 243.500 62.402 C 235.783 64.849, 230.437 68.332, 223.305 75.558 C 217.433 81.508, 215.202 84.748, 211.177 93.175 C 205.955 104.106, 201.404 118.226, 202.519 120.032 C 203.857 122.196, 205.916 120.319, 211.875 111.500 C 224.252 93.182, 234.410 83.547, 249 76.288 C 260.038 70.797, 262 69.370, 262 66.830 C 262 62.114, 251.976 59.714, 243.500 62.402 M 244.500 63.404 C 226.627 69.081, 214.103 83.784, 206.515 108 C 205.051 112.675, 203.680 117.048, 203.470 117.718 C 203.259 118.388, 203.452 119.161, 203.898 119.437 C 204.343 119.712, 207.539 115.845, 210.999 110.844 C 223.747 92.418, 235.339 81.553, 250 74.292 C 262.389 68.157, 263.080 67.239, 257.750 63.989 C 254.055 61.736, 250.277 61.569, 244.500 63.404 M 308.500 137.468 C 280.123 143.659, 251.209 167.318, 227.727 203.560 C 198.821 248.173, 187.452 301.976, 194.064 362.870 C 196.583 386.073, 204.288 414.074, 214.479 437.061 C 219.992 449.498, 231.228 469.526, 238.653 480.152 C 241.594 484.361, 244 488.506, 244 489.363 C 244 490.221, 241.951 493.438, 239.446 496.513 C 223.067 516.623, 216.524 536.146, 218.960 557.648 C 220.614 572.249, 224.666 583.170, 240.049 614.481 C 250.575 635.907, 260.762 653.296, 271.988 669 C 284.207 686.094, 289.930 692.863, 306.838 710.224 C 315.274 718.886, 322.024 726.379, 321.838 726.876 C 321.652 727.373, 315.650 732.176, 308.500 737.549 C 271.318 765.490, 244.933 794.061, 231.911 820.483 C 224.882 834.743, 222.764 843.611, 222.708 859 C 222.668 869.902, 223.001 872.529, 225.311 879.548 C 233.111 903.251, 256.743 922.374, 290.887 932.614 C 332.314 945.038, 383.273 947.755, 437.552 940.434 C 486.963 933.770, 533.110 922.045, 587 902.462 C 710.100 857.731, 815.067 790.417, 872.304 719.500 C 891.391 695.851, 902.738 674.428, 907.674 652.722 C 909.886 642.993, 910.154 639.970, 909.689 630 C 909.012 615.463, 906.636 607.623, 900.122 598.428 C 885.087 577.205, 864.294 567.492, 825.250 563.451 C 820.624 562.972, 819 562.411, 819 561.291 C 819 560.459, 824.655 553.910, 831.566 546.736 C 856.845 520.496, 877.491 488.929, 888.294 460 C 908.052 407.090, 899.587 358.579, 865.851 331.379 C 857.018 324.257, 849.965 320.539, 839.638 317.558 C 832.195 315.409, 828.753 315.003, 818.138 315.017 C 804.628 315.036, 796.779 316.303, 785.322 320.315 C 762.223 328.403, 737.620 351.083, 723 377.767 C 720.191 382.893, 717.952 385.888, 717.041 385.734 C 716.180 385.589, 714.694 382.570, 713.417 378.372 C 706.762 356.486, 689.927 340.381, 666 333.008 C 647.477 327.301, 640.896 326.497, 613 326.532 C 586.662 326.564, 579.521 327.187, 554.500 331.633 C 487.116 343.607, 404.038 376.687, 346.754 414.354 C 332.202 423.923, 324.771 429.821, 325.593 431.151 C 326.803 433.108, 334.466 435.956, 338.584 435.978 C 341.875 435.996, 344.787 434.713, 353.584 429.371 C 414.151 392.593, 482.097 364.246, 541.540 350.955 C 604.148 336.957, 658.718 340.612, 681.570 360.335 C 686.722 364.781, 691.786 374.216, 693.136 381.884 C 694.030 386.955, 693.871 389.028, 692.042 396.158 C 687.621 413.396, 675.140 434.396, 660.175 449.778 C 651.913 458.270, 642 466.130, 642 464.189 C 642 463.689, 645.797 459.161, 650.438 454.126 C 662.246 441.313, 669.192 430.735, 668.801 426.163 C 668.541 423.119, 667.893 422.333, 664 420.335 C 657.479 416.987, 647.648 414.199, 636.371 412.500 C 624.654 410.734, 592.500 410.496, 578.211 412.069 C 541.857 416.073, 500.531 426.610, 455 443.484 C 411.585 459.574, 408.316 460.370, 385.500 460.403 C 368.410 460.428, 359.809 459.136, 345.053 454.326 C 301.470 440.123, 265.955 397.255, 254.478 345 C 252.028 333.845, 251.416 305.143, 253.359 292.500 C 256.256 273.644, 262.470 256.867, 272.037 242.065 C 284.357 223.003, 302.201 211.739, 336.180 201.575 C 340.955 200.147, 347.831 197.646, 351.460 196.018 C 358.776 192.735, 367.930 184.775, 370.418 179.531 C 372.256 175.657, 372.508 165.368, 370.905 159.595 C 369.632 155.012, 361.469 145.945, 355.428 142.405 C 345.463 136.565, 323.318 134.235, 308.500 137.468 M 309.500 138.479 C 280.017 144.966, 252.961 166.701, 229.724 202.565 C 200.147 248.214, 188.567 301.514, 195.085 362 C 197.600 385.339, 205.454 413.638, 215.878 436.925 C 221.510 449.504, 233.753 471.431, 240.458 480.945 C 242.956 484.490, 245 488.270, 245 489.344 C 245 490.418, 242.974 493.759, 240.498 496.766 C 221.998 519.237, 215.517 544.686, 222.045 569.216 C 225.449 582.008, 245.501 624.441, 258.329 646 C 273.208 671.005, 287.030 688.882, 308.340 710.680 C 320.483 723.102, 323.060 726.236, 322.522 727.930 C 322.161 729.069, 321.482 730, 321.014 730 C 320.545 730, 314.388 734.347, 307.331 739.659 C 270.437 767.432, 246.862 793.208, 233.396 820.499 C 226.244 834.994, 223.827 844.433, 223.667 858.500 C 223.479 874.914, 227.657 887.118, 237.695 899.476 C 251.680 916.694, 274.845 928.414, 311 936.564 C 346.184 944.495, 391.371 945.528, 436.552 939.434 C 485.963 932.770, 532.110 921.045, 586 901.462 C 693.727 862.317, 790.007 804.775, 849.695 743.863 C 870.175 722.963, 890.120 695.352, 898.455 676.362 C 918.813 629.981, 909.185 594.124, 871.500 575.977 C 859.111 570.011, 846.196 566.834, 824.820 564.495 C 814.975 563.418, 815.185 562.663, 829.451 547.855 C 849.137 527.421, 866.127 503.725, 877.744 480.500 C 900.816 434.373, 903.941 393.645, 887.029 359.498 C 876.648 338.538, 860.240 324.752, 838.151 318.430 C 829.427 315.933, 827.853 315.789, 814.651 316.274 C 796.108 316.956, 784.763 320.246, 769.356 329.411 C 750.744 340.482, 734.082 358.812, 722.767 380.665 C 717.540 390.759, 715.757 390.240, 711.712 377.445 C 703.414 351.198, 683.791 336.708, 646.500 329.291 C 639.290 327.858, 632.626 327.508, 613 327.535 C 587.728 327.570, 580.268 328.232, 555.500 332.633 C 483.457 345.435, 394.070 382.201, 336.250 422.815 C 331.163 426.388, 327 429.828, 327 430.458 C 327 432.244, 336.666 435.316, 340.384 434.712 C 342.182 434.421, 348.382 431.259, 354.162 427.686 C 411.247 392.400, 481.217 363.219, 540.540 349.955 C 584.128 340.209, 627.609 338.737, 654.895 346.083 C 678.126 352.337, 692.548 365.809, 694.549 383.124 C 696.852 403.050, 675.005 440.639, 649.184 461.180 C 642.195 466.741, 639 468.236, 639 465.947 C 639 465.367, 642.942 460.755, 647.761 455.697 C 656.639 446.376, 666.506 432.815, 667.611 428.414 C 668.562 424.623, 667.456 423.176, 661.637 420.603 C 647.738 414.456, 632.277 412.014, 607.211 412.006 C 587.198 411.999, 576.839 412.903, 555.291 416.532 C 526.968 421.303, 491.942 431.164, 456 444.484 C 412.199 460.717, 409.435 461.381, 385.500 461.414 C 372.728 461.431, 366.399 460.983, 360.053 459.612 C 333.854 453.954, 316.445 444.405, 296.952 425 C 280.775 408.896, 270.455 393.875, 262.943 375.500 C 254.155 354.002, 251.007 338.174, 251.010 315.500 C 251.013 290.844, 254.971 271.747, 263.652 254.500 C 269.555 242.773, 275.309 234.811, 283.249 227.384 C 296.772 214.734, 309.178 208.334, 335.299 200.533 C 354.236 194.877, 364.746 188.287, 369.068 179.359 C 370.884 175.609, 371.174 173.633, 370.785 167.673 C 369.808 152.715, 360.852 143.694, 342.259 138.938 C 333.369 136.665, 318.682 136.459, 309.500 138.479 M 310.500 153.476 C 287.982 158.419, 263.644 176.726, 247.144 201.132 C 241.172 209.967, 232.711 227.265, 233.179 229.682 C 233.887 233.330, 236.044 231.640, 242.612 222.289 C 264.374 191.308, 294.896 172.664, 327.623 170.364 C 334.915 169.851, 337.905 169.193, 340.329 167.565 C 344.778 164.577, 345.056 160.789, 341.099 157.092 C 335.760 152.105, 323.399 150.645, 310.500 153.476 M 311.500 154.480 C 299.117 157.206, 284.662 164.606, 272.150 174.626 C 258.891 185.245, 247.878 199.699, 239.032 218.095 C 236.280 223.818, 234.022 228.838, 234.014 229.250 C 233.971 231.502, 236.463 228.930, 243.534 219.423 C 256.804 201.581, 273.514 187.257, 291.704 178.130 C 300.070 173.933, 315.022 170.179, 326.623 169.364 C 333.926 168.851, 336.900 168.194, 339.323 166.562 C 343.269 163.902, 343.650 162.096, 340.983 158.706 C 336.896 153.509, 324.185 151.687, 311.500 154.480 M 131.900 196.991 C 127.501 199.316, 122.268 205.124, 120.245 209.927 C 119.418 211.892, 118.514 217.386, 118.238 222.136 C 117.629 232.604, 119.820 240.891, 125.959 251.343 C 133.169 263.617, 150.291 284, 153.392 284 C 155.517 284, 155.423 282.903, 152.516 273.801 C 151.163 269.567, 149.509 261.174, 148.839 255.149 C 147.772 245.558, 147.848 242.536, 149.450 230.848 C 152.954 205.265, 152.692 201.263, 147.230 196.966 C 143.993 194.420, 136.742 194.432, 131.900 196.991 M 132 198.334 C 120.902 203.953, 116.012 221.166, 120.973 237.145 C 123.536 245.396, 130.084 256.773, 138.264 267.182 C 145.297 276.133, 152.641 283.692, 153.484 282.849 C 153.771 282.563, 153.083 279.667, 151.955 276.414 C 149.427 269.123, 147.007 253.695, 147.027 245 C 147.035 241.425, 147.931 232.425, 149.018 225 C 151.403 208.716, 151.457 205.765, 149.452 201.540 C 146.662 195.661, 139.779 194.396, 132 198.334 M 209.970 310.579 C 208.281 315.020, 207.645 340.414, 208.882 354 C 211.207 379.530, 217.652 404.212, 227.946 427 C 255.497 487.993, 298.570 525.304, 358.922 540.457 C 374.208 544.295, 384.217 545.391, 404.500 545.447 L 423.500 545.500 423.500 543.001 C 423.500 540.666, 423.074 540.455, 417 539.783 C 389.057 536.689, 365.594 529.864, 340.500 517.530 C 288.495 491.968, 252.181 451.267, 230.284 394 C 221.704 371.559, 216.874 348.440, 214.214 317.081 C 213.458 308.171, 211.832 305.681, 209.970 310.579 M 210.620 312.250 C 210.283 313.488, 209.723 320.350, 209.377 327.500 C 206.867 379.239, 226.777 437.064, 262.068 480.538 C 284.229 507.836, 320.170 529.476, 359.922 539.457 C 375.011 543.245, 385.149 544.379, 404.500 544.442 C 419.853 544.491, 422.500 544.280, 422.500 543.001 C 422.500 541.897, 420.789 541.313, 416 540.783 C 388.476 537.736, 364.606 530.857, 340.500 519.026 C 302.250 500.254, 269.505 470.036, 247.836 433.512 C 227.550 399.321, 216.530 362.777, 213.382 319.250 C 212.722 310.130, 211.821 307.844, 210.620 312.250 M 802.500 332.655 C 780.575 337.329, 757.290 354.264, 743.214 375.773 C 736.776 385.611, 728 402.503, 728 405.056 C 728 407.494, 733.868 436.977, 734.584 438.135 C 734.915 438.672, 735.863 438.973, 736.690 438.805 C 737.705 438.599, 739.135 434.762, 741.089 427 C 747.966 399.686, 765.497 375.316, 785.985 364.590 C 796.451 359.111, 802.652 357.733, 814.944 358.153 C 824.921 358.495, 826.153 358.772, 833.197 362.253 C 842.144 366.675, 847.853 372.071, 852.403 380.406 C 858.022 390.699, 859.472 397.585, 859.373 413.500 C 859.274 429.356, 857.459 438.698, 851.449 454.286 C 838.077 488.965, 812.381 522.355, 765.636 565.794 C 754.564 576.082, 743.894 586.075, 741.923 588 C 738.777 591.074, 738.010 592.871, 735.624 602.771 C 731.567 619.604, 732.515 619.828, 748.732 605.873 C 774.929 583.330, 812.329 547.067, 828.532 528.500 C 873.897 476.518, 892.612 420.705, 878.654 379.032 C 874.289 366.002, 870.145 359.245, 860.500 349.432 C 854.417 343.243, 850.703 340.416, 845 337.633 C 832.196 331.385, 816.875 329.591, 802.500 332.655 M 803.500 333.646 C 799.650 334.461, 792.598 336.841, 787.828 338.935 C 764.044 349.377, 748.009 365.940, 733.857 394.684 L 728.843 404.868 731.934 420.647 C 734.880 435.681, 736.368 440.126, 737.382 436.917 C 737.629 436.138, 738.805 431.394, 739.996 426.375 C 744.375 407.927, 754.341 390.489, 768.500 376.500 C 777.689 367.422, 786.418 361.879, 796.274 358.863 C 801.889 357.145, 805.057 356.851, 814.796 357.145 C 825.744 357.476, 827.008 357.728, 833.353 360.852 C 845.441 366.804, 854.565 378.064, 858.594 392 C 861.352 401.541, 861.121 425.143, 858.150 437.286 C 851.919 462.762, 837.002 489.625, 813.290 518.072 C 803.178 530.202, 775.582 558.103, 755.500 576.500 C 747.800 583.554, 741.066 590.039, 740.535 590.913 C 739.188 593.128, 734.106 613.333, 734.664 614.253 C 735.486 615.606, 739.303 612.865, 752.500 601.448 C 772.155 584.443, 806.022 552.009, 819.320 537.454 C 859.511 493.467, 882.060 447.167, 882.145 408.453 C 882.169 397.170, 881.682 393.544, 878.793 383.500 C 874.532 368.688, 866.598 355.217, 857.331 347.060 C 850.724 341.244, 838.103 335.267, 828.662 333.482 C 819.067 331.668, 812.641 331.710, 803.500 333.646 M 798.698 374.433 C 785.843 379.719, 775.384 388.314, 767.028 400.459 C 758.911 412.257, 751.859 430.732, 747.964 450.402 C 747.022 455.160, 745.944 457.215, 742.407 460.996 L 738.019 465.687 740.097 480.094 C 741.762 491.628, 742.208 500.083, 742.338 522.500 C 742.427 537.900, 742.275 554.089, 742 558.475 C 741.578 565.208, 741.746 566.499, 743.082 566.766 C 745.145 567.178, 758.952 555.054, 776.267 537.625 C 816.852 496.776, 838.606 463.376, 844.972 432.137 C 849.408 410.367, 846.385 393.907, 835.840 382.424 C 826.527 372.283, 811.690 369.091, 798.698 374.433 M 801.738 374.522 C 793.226 377.648, 783.194 383.747, 777.839 389.053 C 764.882 401.891, 754.886 423.007, 749.499 448.920 C 748.165 455.333, 747.345 456.993, 743.455 461.152 C 740.079 464.761, 739.080 466.532, 739.461 468.232 C 742.918 483.658, 745.182 536.383, 743.187 555 C 742.627 560.225, 742.501 564.847, 742.906 565.271 C 743.966 566.381, 750.057 561.671, 761.500 550.894 C 809.828 505.376, 836.835 466.160, 843.972 431.137 C 847.268 414.964, 846.450 403.814, 841.139 392.504 C 837.081 383.863, 833.522 380.172, 825.574 376.363 C 819.726 373.561, 817.468 373.012, 812.028 373.070 C 808.438 373.109, 803.807 373.763, 801.738 374.522 M 704.402 412.750 C 690.512 438.129, 684.142 446.839, 666.500 464.573 C 647.672 483.499, 630.032 497.478, 604.500 513.706 C 549.361 548.751, 490.857 574.734, 427.374 592.372 C 360.566 610.935, 299.154 613.916, 263.242 600.339 C 255.046 597.240, 253.067 597.027, 251.733 599.097 C 250.934 600.335, 252.602 604.377, 259.162 617.103 C 304.105 704.292, 378.321 761.941, 462 774.663 C 478.415 777.158, 513.182 777.146, 529.500 774.639 C 627.019 759.656, 700.715 690.502, 721.473 594.500 C 726.394 571.739, 727.480 559.625, 727.436 528 C 727.382 490.044, 725.652 476.782, 715.304 435 C 708.761 408.581, 707.780 406.578, 704.402 412.750 M 702.303 418.805 C 687.908 449.109, 650.393 485.902, 603.500 515.706 C 548.890 550.414, 491.701 575.777, 428.374 593.372 C 356.416 613.366, 294.613 615.211, 254.851 598.554 C 251.201 597.025, 252.270 600.656, 259.933 615.806 C 286.799 668.924, 325.919 712.680, 370.500 739.475 C 400.466 757.486, 431.161 768.830, 463 773.659 C 479.324 776.135, 512.283 776.123, 528.500 773.636 C 560.142 768.783, 591.658 757.380, 618.498 741.075 C 652.327 720.522, 680.451 689.977, 698.915 653.732 C 712.698 626.677, 720.046 602.638, 724.662 569.500 C 727.166 551.529, 727.169 504.952, 724.668 487.500 C 720.663 459.553, 709.611 412.687, 706.931 412.288 C 706.054 412.157, 704.263 414.679, 702.303 418.805 M 701.489 470 C 702.829 482.048, 703.212 525.509, 702.100 539.500 C 699.127 576.942, 689.962 617.206, 677.090 649.384 C 674.255 656.471, 672.126 662.459, 672.359 662.692 C 673.047 663.380, 677.173 657.090, 676.621 656.195 C 676.343 655.745, 677.717 651.355, 679.674 646.439 C 687.686 626.316, 696.258 592.835, 700.395 565.500 C 703.211 546.900, 704.296 526.175, 703.800 500.500 L 703.316 475.500 705.133 486 C 714.650 540.992, 705.810 601.068, 681.469 646.824 C 676.064 656.985, 676.206 659.027, 681.643 649.326 C 702.838 611.510, 713.355 556.733, 708.969 507 C 707.673 492.310, 704.340 472.689, 702.451 468.638 L 700.988 465.500 701.489 470 M 547 485.577 C 526.795 495.799, 501.495 504.993, 480 509.925 C 459.309 514.672, 424.462 516.530, 406.727 513.830 C 400.740 512.919, 398.681 512.919, 397.769 513.831 C 395.879 515.721, 398.543 517.422, 408 520.365 C 444.775 531.806, 486.650 527.806, 523.300 509.349 C 540.097 500.890, 560.986 485.013, 559.706 481.677 C 559.352 480.755, 558.711 480.060, 558.281 480.133 C 557.852 480.205, 552.775 482.656, 547 485.577 M 547 487.063 C 534.523 493.392, 513.115 501.950, 500 505.852 C 472.605 514, 454.261 516.425, 425.704 515.670 C 414.592 515.376, 403.980 514.821, 402.123 514.436 C 395.972 513.161, 399.127 516.141, 406.550 518.618 C 449.505 532.952, 498.879 525.276, 540.362 497.816 C 551.745 490.281, 556.742 486.351, 558.052 483.903 C 559.566 481.074, 557.822 481.573, 547 487.063 M 252.318 506.250 C 247.424 511.423, 241.037 521.466, 237.668 529.285 C 234.857 535.811, 234.557 537.503, 234.530 547 C 234.503 556.450, 234.781 558.100, 237.307 563.500 C 239.015 567.151, 242.123 571.387, 245.244 574.318 C 254.353 582.875, 275.249 591.398, 293.264 593.904 C 313.455 596.712, 335.514 596.429, 336.697 593.346 C 337.010 592.532, 336.868 591.494, 336.383 591.039 C 335.897 590.585, 328.750 589.729, 320.500 589.138 C 300.183 587.682, 284.986 584.467, 285.009 581.629 C 285.015 581.008, 286.414 578.067, 288.119 575.094 C 291.966 568.385, 302.633 557.749, 310.800 552.478 C 319.546 546.834, 319.966 544.413, 312.686 541.613 C 307.584 539.650, 289.389 528.883, 280.791 522.738 C 277.331 520.266, 270.581 514.813, 265.792 510.621 C 261.002 506.429, 256.703 503, 256.238 503 C 255.773 503, 254.009 504.462, 252.318 506.250 M 253.627 506.250 C 249.748 509.762, 242.409 521.484, 238.836 529.874 C 235.950 536.650, 235.583 538.564, 235.544 547.048 C 235.502 556.117, 235.690 556.981, 239.270 564.228 C 242.199 570.157, 244.133 572.661, 247.943 575.458 C 258.763 583.401, 278.532 590.726, 295.719 593.162 C 307.498 594.831, 333.488 594.911, 335.117 593.283 C 336.883 591.518, 335.588 591.260, 319 590.078 C 295.858 588.428, 284 585.411, 284 581.173 C 284 575.950, 298.984 559.160, 310.813 551.127 C 314.216 548.816, 317 546.487, 317 545.950 C 317 545.414, 314.637 543.922, 311.750 542.635 C 298.881 536.899, 280.625 524.675, 266.166 512.111 C 261.032 507.650, 256.670 504, 256.472 504 C 256.274 504, 254.993 505.012, 253.627 506.250 M 781.459 594.134 C 744.578 626.065, 735.283 633.844, 729.878 637.301 C 722.917 641.754, 723.030 641.605, 716.466 654.979 C 713.423 661.179, 708.924 669.359, 706.467 673.157 C 704.010 676.955, 702 680.443, 702 680.909 C 702 682.691, 705.238 684.294, 711.483 685.603 C 734.884 690.508, 747.029 700.946, 746.988 716.116 C 746.946 731.600, 735.223 750.889, 714.935 768.855 C 698.193 783.679, 668.034 802.248, 644.107 812.464 C 639.490 814.434, 635.539 815.872, 635.326 815.659 C 635.112 815.446, 640.689 811.538, 647.719 806.976 C 688.704 780.376, 712.948 759.761, 725.163 741.123 C 729.860 733.957, 734 723.294, 734 718.363 C 734 710.549, 725.896 702.446, 714.787 699.154 C 703.061 695.678, 701.938 696.221, 702.732 704.978 C 704.116 720.249, 695.249 737.750, 677.354 755.067 C 661.980 769.943, 646.681 780.463, 623 792.446 C 580.750 813.823, 534.766 825.915, 495.500 825.973 C 462.809 826.022, 439.034 815.731, 428.797 797.100 C 427.860 795.395, 426.401 794, 425.556 794 C 423.435 794, 417.449 802.398, 415.014 808.788 C 409.892 822.234, 414.340 834.088, 427.586 842.288 C 431.131 844.483, 442.375 848.858, 448.500 850.424 C 449.600 850.706, 447.144 850.714, 443.043 850.442 C 424.278 849.198, 410.357 842.509, 404.500 831.923 C 401.796 827.035, 401.509 825.662, 401.589 818 C 401.664 810.779, 402.131 808.513, 404.691 802.938 C 406.348 799.328, 410.314 793.299, 413.504 789.539 C 420.307 781.519, 420.182 780.777, 411.472 777.534 C 390.581 769.755, 364.180 755.617, 344.746 741.801 C 341.032 739.161, 337.063 737, 335.926 737 C 333.490 737, 325.054 742.867, 308.500 756.073 C 285.123 774.723, 268.075 792.561, 255.148 811.901 C 241.027 833.026, 235.640 851.895, 239.109 868.073 C 242.822 885.385, 254.840 899.294, 274.498 909.028 C 287.025 915.231, 295.931 918.256, 312.743 922.017 C 333.985 926.769, 349.405 928.271, 377.500 928.324 C 401.707 928.370, 413.393 927.591, 436.500 924.391 C 501.017 915.454, 574.368 893.382, 642.490 862.407 C 725.170 824.811, 788.172 783.899, 834.022 738.028 C 870.190 701.844, 890.042 670.063, 894.128 641.805 C 899.465 604.887, 868.834 580.621, 813.959 578.294 L 800.417 577.720 781.459 594.134 M 799.500 580.132 C 798.400 580.810, 787.825 589.738, 776 599.972 C 740.667 630.550, 733.095 636.860, 728.500 639.553 C 724.606 641.835, 723.518 643.372, 718.690 653.413 C 715.703 659.624, 710.890 668.400, 707.993 672.916 C 704.868 677.788, 703.093 681.493, 703.627 682.027 C 704.123 682.523, 707.686 683.593, 711.546 684.405 C 724.074 687.040, 732.635 690.814, 738.736 696.390 C 745.601 702.664, 747.953 707.533, 747.966 715.500 C 747.991 729.965, 741.645 742.617, 725.950 759.395 C 706.753 779.916, 672.590 802.257, 640.171 815.490 C 633.940 818.033, 628.343 819.948, 627.732 819.744 C 627.122 819.541, 631.770 816.030, 638.061 811.944 C 701.810 770.533, 723.611 750.326, 731.160 725.649 C 732.990 719.667, 733.099 718.272, 732.018 714.649 C 730.054 708.068, 724.469 703.523, 714.541 700.427 C 709.902 698.981, 705.589 697.970, 704.956 698.181 C 704.215 698.428, 703.733 701.944, 703.603 708.033 C 703.253 724.495, 698.271 734.390, 681.631 751.677 C 664.844 769.115, 647.907 781.326, 623 793.944 C 572.984 819.284, 515.190 831.519, 474.236 825.438 C 453.040 822.290, 437.257 813.239, 428.622 799.279 C 427.078 796.782, 425.475 795.264, 424.697 795.563 C 422.945 796.235, 417.459 805.407, 415.537 810.876 C 413.143 817.690, 413.576 823.216, 417.040 830.079 C 421.652 839.216, 428.855 843.248, 453.500 850.487 C 458.432 851.936, 458.338 851.950, 446.500 851.518 C 424.196 850.705, 410.553 844.601, 403.243 832.166 C 400.748 827.921, 400.508 826.642, 400.588 818 C 400.698 806.234, 402.897 800.787, 411.855 790.092 C 418.422 782.251, 418.600 780.862, 413.209 779.524 C 409.083 778.500, 386.453 768.354, 378 763.738 C 367.510 758.009, 353.841 749.541, 345.007 743.296 C 340.886 740.383, 336.776 738, 335.874 738 C 332.790 738, 306.133 758.268, 290.122 772.786 C 266.587 794.129, 246.700 822.755, 241.574 842.672 C 237.763 857.478, 238.566 866.856, 244.769 880 C 250.237 891.587, 259.321 900.077, 274 907.318 C 288.032 914.239, 296.511 917.162, 313.743 921.017 C 334.695 925.704, 350.458 927.261, 377.500 927.315 C 400.791 927.361, 412.610 926.561, 435.500 923.391 C 500.017 914.454, 573.340 892.391, 641.492 861.407 C 739.207 816.983, 812.202 766.465, 855.931 713 C 882.441 680.587, 896.457 648.579, 893.240 627.797 C 891.843 618.769, 886.336 607.283, 880.705 601.652 C 872.195 593.142, 854.663 585.416, 834.980 581.499 C 824.434 579.401, 802.083 578.540, 799.500 580.132 M 673.500 715.683 C 659.025 730.985, 647.449 740.791, 631.640 751.144 C 600.281 771.681, 566.945 784.046, 526.500 790.143 C 520.815 791, 509.581 791.459, 496 791.390 C 477.483 791.295, 472.498 790.917, 460.070 788.667 C 445.052 785.947, 443 786.113, 443 790.042 C 443 792.745, 452.164 802.228, 457.661 805.212 C 460.322 806.658, 466.325 808.865, 471 810.117 C 478.472 812.118, 481.799 812.388, 498.500 812.349 C 522.641 812.294, 539.342 809.861, 564 802.810 C 597.797 793.145, 634.444 774.860, 657.224 756.295 C 667.421 747.985, 680.123 734.132, 683.662 727.460 C 688.684 717.993, 690.630 703.886, 687 703.257 C 686.171 703.114, 680.134 708.671, 673.500 715.683 M 672.262 718.099 C 664.702 725.854, 654.463 735.478, 649.509 739.486 C 615.473 767.020, 575.635 783.887, 527.500 791.143 C 521.600 792.033, 510.578 792.445, 495.500 792.339 C 475.880 792.202, 470.552 791.820, 459.246 789.741 C 443.860 786.911, 442.211 787.369, 445.956 793.430 C 450.383 800.592, 458.565 805.505, 472.098 809.130 C 479.380 811.080, 482.900 811.375, 498.500 811.337 C 536.801 811.244, 572.656 802.064, 613.652 781.855 C 656.058 760.951, 682.314 737.055, 686.890 715.201 C 688.268 708.623, 688.314 704, 687.003 704 C 686.455 704, 679.822 710.345, 672.262 718.099" stroke="none" fill="#939393" fill-rule="evenodd">
</path>
</g>
</svg>
